HIERARCHY
ROOT Hips
{
    OFFSET   0.000000   0.000000   0.000000
    CHANNELS 6 Xposition Yposition Zposition Zrotation Xrotation Yrotation
    JOINT Chest
    {
        OFFSET   0.000000   8.007240   0.000000
        CHANNELS 3 Zrotation Xrotation Yrotation
        JOINT Chest2
        {
            OFFSET   0.000000  22.077100   0.000000
            CHANNELS 3 Zrotation Xrotation Yrotation
            JOINT Neck
            {
                OFFSET   0.000000  23.254800   0.000000
                CHANNELS 3 Zrotation Xrotation Yrotation
                JOINT Head
                {
                    OFFSET   0.000000  14.370000   1.956600
                    CHANNELS 3 Zrotation Xrotation Yrotation
                    End Site
                    {
                        OFFSET   0.000000  19.566000   0.000000
                    }
                }
            }
            JOINT LeftCollar
            {
                OFFSET   3.911900  19.017000  -0.467064
                CHANNELS 3 Zrotation Xrotation Yrotation
                JOINT LeftShoulder
                {
                    OFFSET  10.383700   0.000000   0.000000
                    CHANNELS 3 Zrotation Xrotation Yrotation
                    JOINT LeftElbow
                    {
                        OFFSET  26.662100   0.001476   0.000517
                        CHANNELS 3 Zrotation Xrotation Yrotation
                        JOINT LeftWrist
                        {
                            OFFSET  28.869000  -0.000025  -0.000106
                            CHANNELS 3 Zrotation Xrotation Yrotation
                            JOINT LeftFinger0
                            {
                                OFFSET   2.044660  -2.323460   3.252850
                                CHANNELS 3 Zrotation Xrotation Yrotation
                                JOINT LeftFinger01
                                {
                                    OFFSET   3.088130   0.000000   0.000000
                                    CHANNELS 3 Zrotation Xrotation Yrotation
                                    JOINT LeftFinger02
                                    {
                                        OFFSET   2.639460   0.000000   0.000000
                                        CHANNELS 3 Zrotation Xrotation Yrotation
                                        End Site
                                        {
                                            OFFSET   2.582190   0.000000   0.000000
                                        }
                                    }
                                }
                            }
                            JOINT LeftFinger1
                            {
                                OFFSET   8.364480   0.000000   3.252850
                                CHANNELS 3 Zrotation Xrotation Yrotation
                                JOINT LeftFinger11
                                {
                                    OFFSET   4.646930   0.000000   0.000000
                                    CHANNELS 3 Zrotation Xrotation Yrotation
                                    JOINT LeftFinger12
                                    {
                                        OFFSET   2.323460   0.000000   0.000000
                                        CHANNELS 3 Zrotation Xrotation Yrotation
                                        End Site
                                        {
                                            OFFSET   2.273050   0.000000   0.000000
                                        }
                                    }
                                }
                            }
                            JOINT LeftFinger2
                            {
                                OFFSET   8.364490   0.000015   1.078090
                                CHANNELS 3 Zrotation Xrotation Yrotation
                                JOINT LeftFinger21
                                {
                                    OFFSET   5.111620   0.000000   0.000000
                                    CHANNELS 3 Zrotation Xrotation Yrotation
                                    JOINT LeftFinger22
                                    {
                                        OFFSET   2.788160   0.000016   0.000000
                                        CHANNELS 3 Zrotation Xrotation Yrotation
                                        End Site
                                        {
                                            OFFSET   2.727660   0.000000   0.000000
                                        }
                                    }
                                }
                            }
                            JOINT LeftFinger3
                            {
                                OFFSET   7.899780   0.000017  -1.078090
                                CHANNELS 3 Zrotation Xrotation Yrotation
                                JOINT LeftFinger31
                                {
                                    OFFSET   4.646930   0.000000   0.000000
                                    CHANNELS 3 Zrotation Xrotation Yrotation
                                    JOINT LeftFinger32
                                    {
                                        OFFSET   2.323470   0.000000   0.000000
                                        CHANNELS 3 Zrotation Xrotation Yrotation
                                        End Site
                                        {
                                            OFFSET   2.273050   0.000000   0.000000
                                        }
                                    }
                                }
                            }
                            JOINT LeftFinger4
                            {
                                OFFSET   7.435090   0.000000  -3.252850
                                CHANNELS 3 Zrotation Xrotation Yrotation
                                JOINT LeftFinger41
                                {
                                    OFFSET   3.717550   0.000000   0.000000
                                    CHANNELS 3 Zrotation Xrotation Yrotation
                                    JOINT LeftFinger42
                                    {
                                        OFFSET   1.858770   0.000000   0.000000
                                        CHANNELS 3 Zrotation Xrotation Yrotation
                                        End Site
                                        {
                                            OFFSET   1.818440   0.000000   0.000000
                                        }
                                    }
                                }
                            }
                        }
                    }
                }
            }
            JOINT RightCollar
            {
                OFFSET  -3.911900  19.017000  -0.467063
                CHANNELS 3 Zrotation Xrotation Yrotation
                JOINT RightShoulder
                {
                    OFFSET -10.383700   0.000019   0.000000
                    CHANNELS 3 Zrotation Xrotation Yrotation
                    JOINT RightElbow
                    {
                        OFFSET -26.662100   0.001175   0.000102
                        CHANNELS 3 Zrotation Xrotation Yrotation
                        JOINT RightWrist
                        {
                            OFFSET -28.869000   0.000016  -0.000079
                            CHANNELS 3 Zrotation Xrotation Yrotation
                            JOINT RightFinger0
                            {
                                OFFSET  -2.044660  -2.323490   3.252850
                                CHANNELS 3 Zrotation Xrotation Yrotation
                                JOINT RightFinger01
                                {
                                    OFFSET  -3.088140   0.000000   0.000000
                                    CHANNELS 3 Zrotation Xrotation Yrotation
                                    JOINT RightFinger02
                                    {
                                        OFFSET  -2.639460   0.000000   0.000000
                                        CHANNELS 3 Zrotation Xrotation Yrotation
                                        End Site
                                        {
                                            OFFSET  -2.582190   0.000000   0.000000
                                        }
                                    }
                                }
                            }
                            JOINT RightFinger1
                            {
                                OFFSET  -8.364480   0.000000   3.252850
                                CHANNELS 3 Zrotation Xrotation Yrotation
                                JOINT RightFinger11
                                {
                                    OFFSET  -4.646930   0.000000   0.000000
                                    CHANNELS 3 Zrotation Xrotation Yrotation
                                    JOINT RightFinger12
                                    {
                                        OFFSET  -2.323470   0.000000   0.000000
                                        CHANNELS 3 Zrotation Xrotation Yrotation
                                        End Site
                                        {
                                            OFFSET  -2.273050   0.000000   0.000000
                                        }
                                    }
                                }
                            }
                            JOINT RightFinger2
                            {
                                OFFSET  -8.364480   0.000000   1.078090
                                CHANNELS 3 Zrotation Xrotation Yrotation
                                JOINT RightFinger21
                                {
                                    OFFSET  -5.111620   0.000000   0.000000
                                    CHANNELS 3 Zrotation Xrotation Yrotation
                                    JOINT RightFinger22
                                    {
                                        OFFSET  -2.788160   0.000000   0.000000
                                        CHANNELS 3 Zrotation Xrotation Yrotation
                                        End Site
                                        {
                                            OFFSET  -2.727660   0.000000   0.000000
                                        }
                                    }
                                }
                            }
                            JOINT RightFinger3
                            {
                                OFFSET  -7.899780   0.000000  -1.078090
                                CHANNELS 3 Zrotation Xrotation Yrotation
                                JOINT RightFinger31
                                {
                                    OFFSET  -4.646930   0.000000   0.000000
                                    CHANNELS 3 Zrotation Xrotation Yrotation
                                    JOINT RightFinger32
                                    {
                                        OFFSET  -2.323470   0.000000   0.000000
                                        CHANNELS 3 Zrotation Xrotation Yrotation
                                        End Site
                                        {
                                            OFFSET  -2.273050   0.000000   0.000000
                                        }
                                    }
                                }
                            }
                            JOINT RightFinger4
                            {
                                OFFSET  -7.435090   0.000000  -3.252850
                                CHANNELS 3 Zrotation Xrotation Yrotation
                                JOINT RightFinger41
                                {
                                    OFFSET  -3.717550   0.000000   0.000000
                                    CHANNELS 3 Zrotation Xrotation Yrotation
                                    JOINT RightFinger42
                                    {
                                        OFFSET  -1.858770   0.000000   0.000000
                                        CHANNELS 3 Zrotation Xrotation Yrotation
                                        End Site
                                        {
                                            OFFSET  -1.818440   0.000000   0.000000
                                        }
                                    }
                                }
                            }
                        }
                    }
                }
            }
        }
    }
    JOINT LeftHip
    {
        OFFSET   9.783040   0.000000   0.000000
        CHANNELS 3 Zrotation Xrotation Yrotation
        JOINT LeftKnee
        {
            OFFSET   0.000032 -41.789100  -0.002222
            CHANNELS 3 Zrotation Xrotation Yrotation
            JOINT LeftAnkle
            {
                OFFSET   0.000087 -41.133200  -0.000135
                CHANNELS 3 Zrotation Xrotation Yrotation
                JOINT LeftToe
                {
                    OFFSET   0.000000  -6.358960  14.674500
                    CHANNELS 3 Zrotation Xrotation Yrotation
                    End Site
                    {
                        OFFSET   0.000000   0.000000   3.913200
                    }
                }
            }
        }
    }
    JOINT RightHip
    {
        OFFSET  -9.783040   0.000000   0.000000
        CHANNELS 3 Zrotation Xrotation Yrotation
        JOINT RightKnee
        {
            OFFSET   0.000047 -41.789100  -0.000896
            CHANNELS 3 Zrotation Xrotation Yrotation
            JOINT RightAnkle
            {
                OFFSET  -0.000117 -41.133300  -0.000248
                CHANNELS 3 Zrotation Xrotation Yrotation
                JOINT RightToe
                {
                    OFFSET   0.000000  -6.358970  14.674500
                    CHANNELS 3 Zrotation Xrotation Yrotation
                    End Site
                    {
                        OFFSET   0.000000   0.000000   3.913200
                    }
                }
            }
        }
    }
}
MOTION
Frames: 5
Frame Time:   0.016667
  0.030669  89.443500   2.253430  -2.455330  -8.135200   3.525110   1.142340   5.843500   1.811230   2.114020  11.719300   3.532220   0.808928  -3.093920   0.037875   1.333740  -6.270180   7.422380   0.068178  -1.741800  -3.413810 -40.377300  -9.660130 -72.955600   4.654800 -18.866000 -98.575300   9.610200  21.381500  -4.875380  56.222900  53.020100 -104.797000  -3.890740   0.001463   0.003117   3.054630   0.002380   0.007797 -51.937200   9.414420  -7.299050 -42.986500   0.000628   0.001141 -32.239900  -0.002497  -0.007930 -37.486400   1.643000  -2.140940 -54.157000  -0.001109   0.003596 -36.486400  -0.001665   0.003132 -35.146500  -1.940430   2.753520 -52.789800   0.006723  -0.010454 -35.158000  -0.001308   0.002778 -39.677100  -2.151870   2.591680 -59.588700   0.005796   0.004575 -39.686100  -0.000695   0.003728  -3.120850  -4.779730   9.225670  31.509900 -14.867800  71.800100 -22.602600 -20.695200  85.846500  -5.877700  10.126500  20.195100 -59.040400  54.333300 108.293000 -10.571600  -0.000599  -0.000752 -10.285800  -0.000545   0.003400  38.020500  11.352600  14.129000  32.262700  -0.003700  -0.003429  22.583900  -0.002208   0.001586  31.208400   4.949220   8.098330  47.338900   0.000000  -0.000841  31.527700  -0.005085   0.002190  31.857200   3.521330   5.647920  48.046300  -0.001193  -0.003430  31.998900   0.002872  -0.003345  44.482000  -2.494150  -2.537180  66.806000   0.002443  -0.002917  44.492700   0.002537   0.002625   3.996310  11.114200   2.451930   1.100790   0.784904   0.839400  -3.558410  -3.571320  11.194900   0.000000   0.000000   0.000000   2.935320   7.056050  -8.442760   1.444380   5.839790  -1.595240  -5.667090  -4.060450  -4.121830  -0.000000   0.000000   0.000000
  0.042594  89.448800   2.241490  -2.436260  -8.129280   3.549510   1.161550   5.845650   1.765200   2.157460  11.723700   3.437420   0.808396  -3.091370   0.037541   1.333650  -6.264660   7.272940   0.091513  -1.684100  -3.401200 -40.367900  -9.645150 -73.028400   4.721760 -18.876400 -98.502900   9.620440  21.270200  -4.861670  55.985200  52.899800 -104.499000  -3.811430   0.001411   0.003032   3.094290   0.002370   0.007856 -51.928500   9.467410  -7.342240 -42.985700   0.000654   0.001151 -32.239300  -0.002500  -0.008034 -37.539600   1.686610  -2.194210 -54.158300  -0.001100   0.003630 -36.504800  -0.001678   0.003140 -35.151500  -1.906800   2.705410 -52.795100   0.006767  -0.010492 -35.161600  -0.001304   0.002784 -39.675700  -2.114240   2.546600 -59.583000   0.005850   0.004572 -39.682200  -0.000696   0.003713  -3.120010  -4.804190   9.192510  31.488800 -14.854900  71.704400 -22.664600 -20.768000  85.814700  -5.851710  10.153100  20.278000 -59.040400  54.333300 108.293000 -10.439900  -0.000597  -0.000727 -10.219900  -0.000520   0.003342  38.035600  11.352600  14.122700  32.274400  -0.003696  -0.003455  22.592100  -0.002312   0.001551  31.194700   4.948950   8.103380  47.318500   0.000000  -0.000859  31.514200  -0.005091   0.002221  31.836000   3.521180   5.656740  48.014600  -0.001194  -0.003487  31.977800   0.002866  -0.003385  44.460000  -2.486530  -2.531460  66.772400   0.002437  -0.002950  44.470300   0.002519   0.002561   3.971700  11.103800   2.446500   1.101850   0.761131   0.840868  -3.559480  -3.531100  11.188600  -0.000000   0.000000   0.000000   2.898870   7.057420  -8.478980   1.452990   5.838110  -1.593010  -5.665780  -4.052440  -4.112390   0.000000   0.000000   0.000000
  0.055497  89.453800   2.230210  -2.413730  -8.128430   3.552990   1.178190   5.849350   1.719300   2.195730  11.730600   3.343100   0.807570  -3.083180   0.037206   1.334080  -6.248530   7.108800   0.119020  -1.627740  -3.391000 -40.347700  -9.622970 -73.109600   4.788860 -18.898600 -98.414500   9.616510  21.185000  -4.844140  55.827500  52.818800 -104.301000  -3.732110   0.001362   0.002948   3.133940   0.002359   0.007916 -51.915200   9.520380  -7.385450 -42.980100   0.000679   0.001161 -32.235100  -0.002503  -0.008140 -37.573500   1.730210  -2.247470 -54.158800  -0.001093   0.003664 -36.516800  -0.001688   0.003144 -35.155400  -1.873180   2.657310 -52.798500   0.006811  -0.010530 -35.163800  -0.001297   0.002789 -39.672700  -2.076610   2.501520 -59.577200   0.005902   0.004567 -39.678400  -0.000697   0.003700  -3.119460  -4.827650   9.159010  31.472700 -14.850000  71.607200 -22.725100 -20.821700  85.782800  -5.847810  10.168700  20.352100 -59.040400  54.333300 108.293000 -10.246500  -0.000595  -0.000704 -10.123200  -0.000495   0.003282  38.046500  11.352500  14.118100  32.282900  -0.003690  -0.003482  22.598000  -0.002418   0.001518  31.180900   4.948700   8.108440  47.298100   0.000000  -0.000875  31.500600  -0.005098   0.002255  31.821100   3.521030   5.662940  47.992300  -0.001195  -0.003546  31.962900   0.002861  -0.003428  44.448100  -2.482400  -2.528380  66.754300   0.002430  -0.002983  44.458300   0.002501   0.002497   3.933600  11.099900   2.441130   1.107040   0.745999   0.851176  -3.561320  -3.508450  11.187500   0.000000   0.000000   0.000000   2.857920   7.066170  -8.500190   1.457250   5.827110  -1.590750  -5.662370  -4.043110  -4.080420  -0.000000   0.000000   0.000000
  0.067944  89.458500   2.220250  -2.400270  -8.132170   3.513030   1.193940   5.853700   1.672750   2.232350  11.738500   3.247500   0.807256  -3.071280   0.036859   1.336320  -6.224420   6.940940   0.150943  -1.563770  -3.380260 -40.309700  -9.605790 -73.210100   4.855770 -18.939700 -98.305100   9.613890  21.177700  -4.818300  55.876300  52.843900 -104.362000  -3.858100   0.001326   0.002864   3.070950   0.002344   0.007975 -51.891800   9.477270  -7.360610 -42.954200   0.000708   0.001168 -32.215700  -0.002499  -0.008250 -37.547500   1.708740  -2.222120 -54.156500  -0.001078   0.003694 -36.507800  -0.001685   0.003137 -35.137500  -1.886480   2.678470 -52.772100   0.006862  -0.010579 -35.146200  -0.001285   0.002790 -39.639600  -2.091000   2.522050 -59.529900   0.005969   0.004547 -39.646900  -0.000700   0.003691  -3.118550  -4.853900   9.125720  31.448500 -14.841600  71.501200 -22.763600 -20.867200  85.748100  -5.876920  10.145300  20.392800 -59.040400  54.333300 108.293000 -10.131100  -0.000583  -0.000679 -10.065600  -0.000479   0.003220  38.054800  11.352400  14.114700  32.289300  -0.003686  -0.003516  22.602500  -0.002522   0.001487  31.185300   4.948530   8.106900  47.304400   0.000000  -0.000887  31.504800  -0.005088   0.002295  31.828900   3.520940   5.659710  48.004000  -0.001193  -0.003611  31.970700   0.002858  -0.003467  44.473000  -2.490850  -2.534760  66.792100   0.002441  -0.003031  44.483600   0.002478   0.002440   3.892650  11.087400   2.451480   1.122190   0.783969   0.889159  -3.567940  -3.518780  11.189100   0.000000   0.000000   0.000000   2.825620   7.092830  -8.484720   1.454950   5.800090  -1.609000  -5.652740  -4.027470  -4.022740  -0.000000   0.000000   0.000000
  0.082013  89.461200   2.210650  -2.396520  -8.136360   3.419850   1.211330   5.856510   1.623290   2.272430  11.744000   3.146010   0.806414  -3.048800   0.036489   1.335110  -6.178860   6.773920   0.179814  -1.488900  -3.365840 -40.281400  -9.589810 -73.312300   4.913940 -18.971900 -98.198700   9.618030  21.170200  -4.799170  55.925300  52.869000 -104.423000  -3.984100   0.001288   0.002780   3.007960   0.002330   0.008034 -51.853700   9.434150  -7.335780 -42.921400   0.000738   0.001175 -32.191000  -0.002495  -0.008360 -37.507000   1.687260  -2.196760 -54.153300  -0.001065   0.003722 -36.493800  -0.001682   0.003131 -35.111100  -1.899780   2.699630 -52.733100   0.006913  -0.010628 -35.120200  -0.001273   0.002793 -39.603200  -2.105390   2.542580 -59.474100   0.006037   0.004524 -39.609700  -0.000701   0.003681  -3.117780  -4.879340   9.093570  31.414200 -14.827200  71.384500 -22.773400 -20.885800  85.714600  -5.914970  10.123000  20.416900 -59.040400  54.333300 108.293000 -10.077500  -0.000567  -0.000655 -10.038800  -0.000463   0.003158  38.065800  11.352300  14.110100  32.297900  -0.003684  -0.003549  22.608500  -0.002630   0.001458  31.199600   4.948410   8.101690  47.325500   0.000000  -0.000899  31.518800  -0.005077   0.002335  31.847400   3.520860   5.652090  48.031600  -0.001189  -0.003676  31.989000   0.002858  -0.003505  44.520900  -2.507140  -2.547040  66.864800   0.002451  -0.003079  44.532000   0.002457   0.002384   3.848250  11.079100   2.480140   1.142870   0.821932   0.951697  -3.574130  -3.529030  11.197800   0.000000   0.000000   0.000000   2.795780   7.112560  -8.459400   1.450760   5.765150  -1.627230  -5.638920  -4.007660  -3.941420  -0.000000   0.000000  -0.000000
